<svg width="256" height="256" viewBox="0 0 256 256" fill="none" xmlns="http://www.w3.org/2000/svg">
  <rect width="256" height="256" rx="36" fill="white"/>
  <path d="M48 74h56c18 0 30 10 38 24 8-14 20-24 38-24h28v90h-28c-22 0-33 10-38 24-5-14-16-24-38-24H48V74z" fill="url(#a)"/>
  <path d="M86 108c20 3 34 14 42 34-18-7-34-8-48-4 8-17 10-23 6-30z" fill="url(#b)"/>
  <path d="M136 170l40-42h-18l38-42-8 30h18l-46 54-24 0z" fill="#f59e0b"/>
  <circle cx="190" cy="58" r="16" stroke="url(#c)" stroke-width="8" fill="none"/>
  <defs>
    <linearGradient id="a" x1="48" y1="74" x2="208" y2="188" gradientUnits="userSpaceOnUse">
      <stop stop-color="#0284c7"/><stop offset="1" stop-color="#22d3ee"/>
    </linearGradient>
    <linearGradient id="b" x1="86" y1="108" x2="128" y2="142" gradientUnits="userSpaceOnUse">
      <stop stop-color="#0ea5e9"/><stop offset="1" stop-color="#0369a1"/>
    </linearGradient>
    <linearGradient id="c" x1="174" y1="42" x2="206" y2="74" gradientUnits="userSpaceOnUse">
      <stop stop-color="#2563eb"/><stop offset="1" stop-color="#06b6d4"/>
    </linearGradient>
  </defs>
</svg>
